<?xml version="1.0" encoding="UTF-8" standalone="no"?>
<!DOCTYPE svg PUBLIC "-//W3C//DTD SVG 1.1//EN"
 "http://www.w3.org/Graphics/SVG/1.1/DTD/svg11.dtd">
<!-- Generated by graphviz version 2.43.0 (0)
 -->
<!-- Title: G Pages: 1 -->
<svg width="923pt" height="439pt"
 viewBox="0.00 0.00 923.03 438.84" xmlns="http://www.w3.org/2000/svg" xmlns:xlink="http://www.w3.org/1999/xlink">
<g id="graph0" class="graph" transform="scale(1 1) rotate(0) translate(4 434.84)">
<title>G</title><style>.edge>path:hover{stroke-width:8}</style>
<polygon fill="white" stroke="transparent" points="-4,4 -4,-434.84 919.03,-434.84 919.03,4 -4,4"/>
<!-- click -->
<g id="node1" class="node">
<title>click</title><style>.edge>path:hover{stroke-width:8}</style>
<ellipse fill="#ce3b3b" stroke="black" cx="27" cy="-340.84" rx="27" ry="18"/>
<text text-anchor="middle" x="27" y="-338.34" font-family="Helvetica,sans-Serif" font-size="10.00" fill="#ffffff">click</text>
</g>
<!-- todo_tests_test_todo -->
<g id="node15" class="node">
<title>todo_tests_test_todo</title><style>.edge>path:hover{stroke-width:8}</style>
<ellipse fill="#4c2e6b" stroke="black" cx="339" cy="-28.99" rx="43.68" ry="28.98"/>
<text text-anchor="middle" x="339" y="-37.49" font-family="Helvetica,sans-Serif" font-size="10.00" fill="#ffffff">todo.</text>
<text text-anchor="middle" x="339" y="-26.49" font-family="Helvetica,sans-Serif" font-size="10.00" fill="#ffffff">tests.</text>
<text text-anchor="middle" x="339" y="-15.49" font-family="Helvetica,sans-Serif" font-size="10.00" fill="#ffffff">test_todo</text>
</g>
<!-- click&#45;&gt;todo_tests_test_todo -->
<g id="edge1" class="edge">
<title>click&#45;&gt;todo_tests_test_todo</title><style>.edge>path:hover{stroke-width:8}</style>
<path fill="none" stroke="black" d="M30.78,-322.67C35.67,-302.78 45.46,-269.54 61,-244.41 79.22,-214.94 116.25,-222.82 115,-188.2"/>
<path fill="none" stroke="black" d="M115,-186.2C110.19,-102.12 219.9,-59.51 287.52,-41.31"/>
<polygon fill="#ce3b3b" stroke="black" points="288.79,-44.6 297.58,-38.69 287.03,-37.82 288.79,-44.6"/>
</g>
<!-- todo_todo -->
<g id="node16" class="node">
<title>todo_todo</title><style>.edge>path:hover{stroke-width:8}</style>
<ellipse fill="#5c2493" stroke="black" cx="396" cy="-187.2" rx="37.17" ry="18"/>
<text text-anchor="middle" x="396" y="-184.7" font-family="Helvetica,sans-Serif" font-size="10.00" fill="#ffffff">todo.todo</text>
</g>
<!-- click&#45;&gt;todo_todo -->
<g id="edge2" class="edge">
<title>click&#45;&gt;todo_todo</title><style>.edge>path:hover{stroke-width:8}</style>
<path fill="none" stroke="black" d="M47.59,-329.07C52.54,-326.77 57.88,-324.53 63,-322.84 155.54,-292.19 206.59,-336.06 275,-266.62"/>
<path fill="none" stroke="black" d="M275,-264.62C283.65,-255.84 284.26,-251.97 294,-244.41 314.41,-228.57 339.85,-214.54 360.22,-204.46"/>
<polygon fill="#ce3b3b" stroke="black" points="362,-207.48 369.48,-199.97 358.95,-201.18 362,-207.48"/>
</g>
<!-- click_testing -->
<g id="node2" class="node">
<title>click_testing</title><style>.edge>path:hover{stroke-width:8}</style>
<ellipse fill="#b34c4c" stroke="black" cx="115" cy="-265.62" rx="44.98" ry="18"/>
<text text-anchor="middle" x="115" y="-263.12" font-family="Helvetica,sans-Serif" font-size="10.00" fill="#ffffff">click.testing</text>
</g>
<!-- click_testing&#45;&gt;todo_tests_test_todo -->
<g id="edge3" class="edge">
<title>click_testing&#45;&gt;todo_tests_test_todo</title><style>.edge>path:hover{stroke-width:8}</style>
<path fill="none" stroke="black" d="M115.35,-247.62C115.59,-232.13 115.74,-208.62 115,-188.2"/>
</g>
<!-- pytest -->
<g id="node3" class="node">
<title>pytest</title><style>.edge>path:hover{stroke-width:8}</style>
<ellipse fill="#85b653" stroke="black" cx="205" cy="-265.62" rx="27.84" ry="18"/>
<text text-anchor="middle" x="205" y="-263.12" font-family="Helvetica,sans-Serif" font-size="10.00" fill="#000000">pytest</text>
</g>
<!-- pytest&#45;&gt;todo_tests_test_todo -->
<g id="edge4" class="edge">
<title>pytest&#45;&gt;todo_tests_test_todo</title><style>.edge>path:hover{stroke-width:8}</style>
<path fill="none" stroke="black" d="M185.21,-252.74C158.91,-236.26 115.66,-206.43 115,-188.2"/>
</g>
<!-- rich -->
<g id="node4" class="node">
<title>rich</title><style>.edge>path:hover{stroke-width:8}</style>
<polygon fill="blue" stroke="black" points="126,-358.84 72,-358.84 72,-322.84 126,-322.84 126,-358.84"/>
<text text-anchor="middle" x="99" y="-338.34" font-family="Helvetica,sans-Serif" font-size="10.00" fill="white">rich</text>
</g>
<!-- rich&#45;&gt;todo_todo -->
<g id="edge5" class="edge">
<title>rich&#45;&gt;todo_todo</title><style>.edge>path:hover{stroke-width:8}</style>
<path fill="none" stroke="black" d="M126.37,-326.51C129.26,-325.22 132.18,-323.97 135,-322.84 197.2,-297.79 227.94,-314.39 275,-266.62"/>
</g>
<!-- rich_console -->
<g id="node5" class="node">
<title>rich_console</title><style>.edge>path:hover{stroke-width:8}</style>
<polygon fill="blue" stroke="black" points="265.5,-430.84 190.5,-430.84 190.5,-394.84 265.5,-394.84 265.5,-430.84"/>
<text text-anchor="middle" x="228" y="-410.34" font-family="Helvetica,sans-Serif" font-size="10.00" fill="white">rich.console</text>
</g>
<!-- rich_console&#45;&gt;rich -->
<g id="edge6" class="edge">
<title>rich_console&#45;&gt;rich</title><style>.edge>path:hover{stroke-width:8}</style>
<path fill="none" stroke="black" d="M196.44,-394.71C177.9,-384.65 154.39,-371.89 135.1,-361.43"/>
<polygon fill="blue" stroke="black" points="136.76,-358.34 126.3,-356.65 133.42,-364.49 136.76,-358.34"/>
</g>
<!-- rich_panel -->
<g id="node6" class="node">
<title>rich_panel</title><style>.edge>path:hover{stroke-width:8}</style>
<ellipse fill="#4cb3b3" stroke="black" cx="182" cy="-340.84" rx="38.03" ry="18"/>
<text text-anchor="middle" x="182" y="-338.34" font-family="Helvetica,sans-Serif" font-size="10.00" fill="#000000">rich.panel</text>
</g>
<!-- rich_console&#45;&gt;rich_panel -->
<g id="edge7" class="edge">
<title>rich_console&#45;&gt;rich_panel</title><style>.edge>path:hover{stroke-width:8}</style>
<path fill="none" stroke="black" d="M216.63,-394.53C211.15,-386.19 204.46,-376.02 198.44,-366.85"/>
<polygon fill="blue" stroke="black" points="201.34,-364.89 192.92,-358.46 195.49,-368.74 201.34,-364.89"/>
</g>
<!-- rich_table -->
<g id="node7" class="node">
<title>rich_table</title><style>.edge>path:hover{stroke-width:8}</style>
<ellipse fill="#49acac" stroke="black" cx="275" cy="-340.84" rx="36.49" ry="18"/>
<text text-anchor="middle" x="275" y="-338.34" font-family="Helvetica,sans-Serif" font-size="10.00" fill="#000000">rich.table</text>
</g>
<!-- rich_console&#45;&gt;rich_table -->
<g id="edge8" class="edge">
<title>rich_console&#45;&gt;rich_table</title><style>.edge>path:hover{stroke-width:8}</style>
<path fill="none" stroke="black" d="M239.62,-394.53C245.22,-386.19 252.05,-376.02 258.2,-366.85"/>
<polygon fill="blue" stroke="black" points="261.17,-368.71 263.84,-358.46 255.36,-364.81 261.17,-368.71"/>
</g>
<!-- rich_console&#45;&gt;todo_todo -->
<g id="edge9" class="edge">
<title>rich_console&#45;&gt;todo_todo</title><style>.edge>path:hover{stroke-width:8}</style>
<path fill="none" stroke="black" d="M265.62,-400.46C285.55,-392.31 308.29,-379.1 320,-358.84 328.01,-344.98 325.3,-337.93 320,-322.84 309.4,-292.64 252.54,-289.42 275,-266.62"/>
</g>
<!-- rich_panel&#45;&gt;todo_todo -->
<g id="edge10" class="edge">
<title>rich_panel&#45;&gt;todo_todo</title><style>.edge>path:hover{stroke-width:8}</style>
<path fill="none" stroke="black" d="M203.19,-325.5C222.89,-311.65 252.5,-289.46 275,-266.62"/>
</g>
<!-- rich_table&#45;&gt;todo_todo -->
<g id="edge11" class="edge">
<title>rich_table&#45;&gt;todo_todo</title><style>.edge>path:hover{stroke-width:8}</style>
<path fill="none" stroke="black" d="M268.98,-322.78C264.3,-306.09 260.73,-281.11 275,-266.62"/>
</g>
<!-- todo_cli -->
<g id="node8" class="node">
<title>todo_cli</title><style>.edge>path:hover{stroke-width:8}</style>
<ellipse fill="#7f4cb3" stroke="black" cx="396" cy="-111.98" rx="31.4" ry="18"/>
<text text-anchor="middle" x="396" y="-109.48" font-family="Helvetica,sans-Serif" font-size="10.00" fill="#ffffff">todo.cli</text>
</g>
<!-- todo_config_manager -->
<g id="node9" class="node">
<title>todo_config_manager</title><style>.edge>path:hover{stroke-width:8}</style>
<ellipse fill="#853bce" stroke="black" cx="370" cy="-265.62" rx="67.35" ry="21.43"/>
<text text-anchor="middle" x="370" y="-268.62" font-family="Helvetica,sans-Serif" font-size="10.00" fill="#ffffff">todo.</text>
<text text-anchor="middle" x="370" y="-257.62" font-family="Helvetica,sans-Serif" font-size="10.00" fill="#ffffff">config_manager</text>
</g>
<!-- todo_config_manager&#45;&gt;todo_tests_test_todo -->
<g id="edge12" class="edge">
<title>todo_config_manager&#45;&gt;todo_tests_test_todo</title><style>.edge>path:hover{stroke-width:8}</style>
<path fill="none" stroke="black" d="M417.25,-250.34C449.36,-238.43 490.65,-218.45 517,-188.2"/>
<path fill="none" stroke="black" d="M517,-186.2C525.1,-176.9 526.8,-174.19 536,-165.98 565.38,-139.76 633.77,-141.86 607,-112.98"/>
</g>
<!-- todo_config_manager&#45;&gt;todo_todo -->
<g id="edge13" class="edge">
<title>todo_config_manager&#45;&gt;todo_todo</title><style>.edge>path:hover{stroke-width:8}</style>
<path fill="none" stroke="black" d="M376.97,-244.14C380.05,-235.08 383.71,-224.32 387,-214.66"/>
<polygon fill="#853bce" stroke="black" points="390.34,-215.71 390.24,-205.12 383.71,-213.46 390.34,-215.71"/>
</g>
<!-- todo_task_analytics -->
<g id="node10" class="node">
<title>todo_task_analytics</title><style>.edge>path:hover{stroke-width:8}</style>
<ellipse fill="#8547c2" stroke="black" cx="607" cy="-187.2" rx="61.54" ry="21.43"/>
<text text-anchor="middle" x="607" y="-190.2" font-family="Helvetica,sans-Serif" font-size="10.00" fill="#ffffff">todo.</text>
<text text-anchor="middle" x="607" y="-179.2" font-family="Helvetica,sans-Serif" font-size="10.00" fill="#ffffff">task_analytics</text>
</g>
<!-- todo_task_analytics&#45;&gt;todo_tests_test_todo -->
<g id="edge14" class="edge">
<title>todo_task_analytics&#45;&gt;todo_tests_test_todo</title><style>.edge>path:hover{stroke-width:8}</style>
<path fill="none" stroke="black" d="M613.75,-165.8C617.76,-149.39 619.88,-126.87 607,-112.98"/>
</g>
<!-- todo_task_export -->
<g id="node11" class="node">
<title>todo_task_export</title><style>.edge>path:hover{stroke-width:8}</style>
<ellipse fill="#8547c2" stroke="black" cx="739" cy="-187.2" rx="52.15" ry="21.43"/>
<text text-anchor="middle" x="739" y="-190.2" font-family="Helvetica,sans-Serif" font-size="10.00" fill="#ffffff">todo.</text>
<text text-anchor="middle" x="739" y="-179.2" font-family="Helvetica,sans-Serif" font-size="10.00" fill="#ffffff">task_export</text>
</g>
<!-- todo_task_export&#45;&gt;todo_tests_test_todo -->
<g id="edge15" class="edge">
<title>todo_task_export&#45;&gt;todo_tests_test_todo</title><style>.edge>path:hover{stroke-width:8}</style>
<path fill="none" stroke="black" d="M700.64,-172.55C671.75,-160.63 632.84,-140.85 607,-112.98"/>
</g>
<!-- todo_task_filters -->
<g id="node12" class="node">
<title>todo_task_filters</title><style>.edge>path:hover{stroke-width:8}</style>
<polygon fill="blue" stroke="black" points="480.5,-358.84 409.5,-358.84 409.5,-322.84 480.5,-322.84 480.5,-358.84"/>
<text text-anchor="middle" x="445" y="-343.84" font-family="Helvetica,sans-Serif" font-size="10.00" fill="white">todo.</text>
<text text-anchor="middle" x="445" y="-332.84" font-family="Helvetica,sans-Serif" font-size="10.00" fill="white">task_filters</text>
</g>
<!-- todo_task_utils -->
<g id="node14" class="node">
<title>todo_task_utils</title><style>.edge>path:hover{stroke-width:8}</style>
<polygon fill="blue" stroke="black" points="519,-283.62 455,-283.62 455,-247.62 519,-247.62 519,-283.62"/>
<text text-anchor="middle" x="487" y="-268.62" font-family="Helvetica,sans-Serif" font-size="10.00" fill="white">todo.</text>
<text text-anchor="middle" x="487" y="-257.62" font-family="Helvetica,sans-Serif" font-size="10.00" fill="white">task_utils</text>
</g>
<!-- todo_task_filters&#45;&gt;todo_task_utils -->
<g id="edge16" class="edge">
<title>todo_task_filters&#45;&gt;todo_task_utils</title><style>.edge>path:hover{stroke-width:8}</style>
<path fill="none" stroke="black" d="M459.95,-313.77C463.87,-306.94 468.1,-299.57 472.02,-292.74"/>
<polygon fill="blue" stroke="black" points="456.89,-312.07 454.95,-322.49 462.97,-315.55 456.89,-312.07"/>
<polygon fill="blue" stroke="black" points="475.18,-294.26 477.12,-283.85 469.11,-290.78 475.18,-294.26"/>
</g>
<!-- todo_task_filters&#45;&gt;todo_tests_test_todo -->
<g id="edge17" class="edge">
<title>todo_task_filters&#45;&gt;todo_tests_test_todo</title><style>.edge>path:hover{stroke-width:8}</style>
<path fill="none" stroke="black" d="M480.75,-326.72C498.34,-318.23 517.89,-305.28 528,-286.84 537.06,-270.3 529.82,-263.18 528,-244.41 525.54,-219.07 500.28,-207.39 517,-188.2"/>
</g>
<!-- todo_task_filters&#45;&gt;todo_todo -->
<g id="edge18" class="edge">
<title>todo_task_filters&#45;&gt;todo_todo</title><style>.edge>path:hover{stroke-width:8}</style>
<path fill="none" stroke="black" d="M409.11,-331.18C353.27,-316.91 254.03,-287.91 275,-266.62"/>
</g>
<!-- todo_task_import -->
<g id="node13" class="node">
<title>todo_task_import</title><style>.edge>path:hover{stroke-width:8}</style>
<ellipse fill="#8547c2" stroke="black" cx="862" cy="-187.2" rx="53.07" ry="21.43"/>
<text text-anchor="middle" x="862" y="-190.2" font-family="Helvetica,sans-Serif" font-size="10.00" fill="#ffffff">todo.</text>
<text text-anchor="middle" x="862" y="-179.2" font-family="Helvetica,sans-Serif" font-size="10.00" fill="#ffffff">task_import</text>
</g>
<!-- todo_task_import&#45;&gt;todo_tests_test_todo -->
<g id="edge19" class="edge">
<title>todo_task_import&#45;&gt;todo_tests_test_todo</title><style>.edge>path:hover{stroke-width:8}</style>
<path fill="none" stroke="black" d="M822.4,-172.98C814.97,-170.59 807.27,-168.16 800,-165.98 714.8,-140.41 667.48,-178.21 607,-112.98"/>
</g>
<!-- todo_task_utils&#45;&gt;todo_tests_test_todo -->
<g id="edge21" class="edge">
<title>todo_task_utils&#45;&gt;todo_tests_test_todo</title><style>.edge>path:hover{stroke-width:8}</style>
<path fill="none" stroke="black" d="M490.25,-247.38C494.15,-230.63 502.11,-205.29 517,-188.2"/>
</g>
<!-- todo_task_utils&#45;&gt;todo_todo -->
<g id="edge22" class="edge">
<title>todo_task_utils&#45;&gt;todo_todo</title><style>.edge>path:hover{stroke-width:8}</style>
<path fill="none" stroke="black" d="M466.35,-247.28C453.11,-236.16 435.83,-221.64 421.7,-209.78"/>
<polygon fill="blue" stroke="black" points="423.71,-206.9 413.8,-203.15 419.21,-212.26 423.71,-206.9"/>
</g>
<!-- todo_todo&#45;&gt;todo_cli -->
<g id="edge23" class="edge">
<title>todo_todo&#45;&gt;todo_cli</title><style>.edge>path:hover{stroke-width:8}</style>
<path fill="none" stroke="black" d="M396,-168.85C396,-160.37 396,-149.96 396,-140.44"/>
<polygon fill="#5c2493" stroke="black" points="399.5,-140.21 396,-130.21 392.5,-140.21 399.5,-140.21"/>
</g>
<!-- todo_todo&#45;&gt;todo_tests_test_todo -->
<g id="edge24" class="edge">
<title>todo_todo&#45;&gt;todo_tests_test_todo</title><style>.edge>path:hover{stroke-width:8}</style>
<path fill="none" stroke="black" d="M430.61,-180.43C496.82,-168.67 632.7,-140.7 607,-112.98"/>
<path fill="none" stroke="black" d="M607,-110.98C551.63,-51.26 453.93,-35.02 393.03,-30.93"/>
<polygon fill="#5c2493" stroke="black" points="393.04,-27.42 382.85,-30.33 392.63,-34.41 393.04,-27.42"/>
</g>
</g>
</svg>
